<svg width="512" height="512" viewBox="0 0 512 512" fill="none" xmlns="http://www.w3.org/2000/svg">
  <defs>
    <linearGradient id="panelFill" x1="96" y1="88" x2="416" y2="424" gradientUnits="userSpaceOnUse">
      <stop offset="0" stop-color="#2B2422" />
      <stop offset="1" stop-color="#1E1A19" />
    </linearGradient>
    <linearGradient id="panelStroke" x1="104" y1="92" x2="408" y2="420" gradientUnits="userSpaceOnUse">
      <stop offset="0" stop-color="#C88963" />
      <stop offset="1" stop-color="#9E6547" />
    </linearGradient>
    <linearGradient id="textFill" x1="196" y1="205" x2="328" y2="308" gradientUnits="userSpaceOnUse">
      <stop offset="0" stop-color="#E0A17D" />
      <stop offset="1" stop-color="#C57A57" />
    </linearGradient>
    <filter id="softShadow" x="44" y="48" width="424" height="424" filterUnits="userSpaceOnUse" color-interpolation-filters="sRGB">
      <feOffset dy="16" />
      <feGaussianBlur stdDeviation="18" />
      <feColorMatrix type="matrix" values="0 0 0 0 0.02 0 0 0 0 0.015 0 0 0 0 0.015 0 0 0 0.4 0" />
      <feBlend in="SourceGraphic" />
    </filter>
  </defs>

  <g filter="url(#softShadow)">
    <rect x="76" y="76" width="360" height="360" rx="84" fill="url(#panelFill)" />
    <rect x="77.5" y="77.5" width="357" height="357" rx="82.5" stroke="url(#panelStroke)" stroke-width="3" />
    <path
      d="M120 132C120 109.909 137.909 92 160 92H352C374.091 92 392 109.909 392 132V176C392 153.909 374.091 136 352 136H160C137.909 136 120 153.909 120 176V132Z"
      fill="white"
      fill-opacity="0.035"
    />
  </g>

  <text
    x="256"
    y="285"
    text-anchor="middle"
    fill="url(#textFill)"
    font-family="Geist Mono, Cascadia Mono, Consolas, monospace"
    font-size="118"
    font-weight="500"
    letter-spacing="10"
  >
    Q H
  </text>
</svg>
